<svg width="50" height="39" viewBox="0 0 50 39" fill="none" xmlns="http://www.w3.org/2000/svg">
<path d="M36.25 19.5C39.7 19.5 42.475 16.38 42.475 12.5357C42.475 8.69143 39.7 5.57143 36.25 5.57143C32.8 5.57143 30 8.69143 30 12.5357C30 16.38 32.8 19.5 36.25 19.5ZM17.5 16.7143C21.65 16.7143 24.975 12.9814 24.975 8.35714C24.975 3.73286 21.65 0 17.5 0C13.35 0 10 3.73286 10 8.35714C10 12.9814 13.35 16.7143 17.5 16.7143ZM36.25 25.0714C31.675 25.0714 22.5 27.6343 22.5 32.7321V39H50V32.7321C50 27.6343 40.825 25.0714 36.25 25.0714ZM17.5 22.2857C11.675 22.2857 0 25.545 0 32.0357V39H17.5V32.7321C17.5 30.3643 18.325 26.2136 23.425 23.0657C21.25 22.5643 19.15 22.2857 17.5 22.2857Z" fill="#2656F6"/>
</svg>
