<svg width="20" height="24" viewBox="0 0 20 24" fill="none" xmlns="http://www.w3.org/2000/svg">
<path d="M13.1677 4.46512C14.5342 4.46512 15.6522 3.46047 15.6522 2.23256C15.6522 1.00465 14.5342 0 13.1677 0C11.8012 0 10.6832 1.00465 10.6832 2.23256C10.6832 3.46047 11.8012 4.46512 13.1677 4.46512ZM8.69565 19.9814L9.93789 15.0698L12.5466 17.3023V24H15.0311V15.6279L12.4224 13.3953L13.1677 10.0465C14.7826 11.7209 17.2671 12.8372 20 12.8372V10.6047C17.6398 10.6047 15.6522 9.48837 14.6584 7.92558L13.4161 6.13953C12.9193 5.46977 12.1739 5.02326 11.3043 5.02326C10.9317 5.02326 10.6832 5.13488 10.3106 5.13488L3.85093 7.5907V12.8372H6.3354V9.04186L8.57143 8.26047L6.58385 17.3023L0.496894 16.186L0 18.4186L8.69565 19.9814Z" fill="#2656F6"/>
</svg>
