<svg width="45" height="45" viewBox="0 0 45 45" fill="none" xmlns="http://www.w3.org/2000/svg">
<path d="M4.0725 9.63C1.5075 13.275 0 17.7075 0 22.5C0 27.2925 1.5075 31.725 4.0725 35.37C9.5175 33.6375 13.5 28.53 13.5 22.5C13.5 16.47 9.5175 11.3625 4.0725 9.63Z" fill="#2656F6"/>
<path d="M40.9273 9.63C35.4823 11.3625 31.4998 16.47 31.4998 22.5C31.4998 28.53 35.4823 33.6375 40.9273 35.37C43.4923 31.725 44.9998 27.2925 44.9998 22.5C44.9998 17.7075 43.4923 13.275 40.9273 9.63Z" fill="#2656F6"/>
<path d="M26.9999 22.5C26.9999 15.12 31.4324 8.7975 37.7774 6.0075C33.7724 2.295 28.4174 0 22.4999 0C16.5824 0 11.2274 2.295 7.22241 6.0075C13.5674 8.7975 17.9999 15.12 17.9999 22.5C17.9999 29.88 13.5674 36.2025 7.22241 38.9925C11.2274 42.705 16.5824 45 22.4999 45C28.4174 45 33.7724 42.705 37.7774 38.9925C31.4324 36.2025 26.9999 29.88 26.9999 22.5Z" fill="#2656F6"/>
</svg>
